<?xml version="1.0" encoding="utf-8"?>
<!-- Generator: Adobe Illustrator 24.2.1, SVG Export Plug-In . SVG Version: 6.00 Build 0)  -->
<svg version="1.1" id="Layer_2" xmlns="http://www.w3.org/2000/svg" xmlns:xlink="http://www.w3.org/1999/xlink" x="0px" y="0px"
	 viewBox="0 0 319 169.9" style="enable-background:new 0 0 319 169.9;" xml:space="preserve">
<style type="text/css">
	.st0{fill-rule:evenodd;clip-rule:evenodd;fill:#FFFFFF;}
</style>
<path class="st0" d="M206.6,52.8c-1.7,0-3.4,0-5,0c0.1-14,1.3-26.8-7-32.6c-8.5-6-23-4.8-30.7,1c-3.7,2.8-4.6,7.6-5.8,13
	c0,3.4,0,6.9,0,10.3c0,7.6,0,14.6,2.9,19.2c2.6,4.1,7.3,6.4,11.3,9.1c6.8,4.8,13.6,9.9,20.4,14.6c3.3,2.3,7.2,4.3,9.6,7.4
	c6.4,8.5,5.5,17.8,5.5,32.4c0,7.5,0.1,14.5-2.4,19.4c-6.8,13.1-32,15.1-44.6,5.8c-8.7-6.5-7-23.7-7-38.9c1.8,0,3.5,0,5.3,0
	c-0.1,13.7-1.9,30.4,6,36.2c6.3,4.6,20.3,6.2,28.6,1.9c5.2-2.7,7.4-7.3,8.9-13.9c0-4.5,0-9,0-13.4c0-7,0.9-16.1-1.2-21.4
	c-2.8-6.9-8.2-10.2-13.9-14.2c-6.9-4.8-13.7-10-20.6-14.9c-4.7-3.3-9.3-6-12-11.3c-1.8-3.4-1.7-8.2-1.7-13.4
	c0-8.2-0.8-17.9,1.7-23.8c2.5-5.8,7.7-10,13.9-12c9.6-3.1,23.1-1.1,29.5,3.4C208.1,23.8,206.7,36.2,206.6,52.8z"/>
<path class="st0" d="M278.2,52.8c-1.7,0-3.4,0-5,0c0.1-14,1.3-26.8-7-32.6c-8.5-6-23-4.8-30.7,1c-3.7,2.8-4.6,7.6-5.8,13
	c0,3.4,0,6.9,0,10.3c0,7.6,0,14.6,2.9,19.2c2.6,4.1,7.3,6.4,11.3,9.1c6.8,4.8,13.6,9.9,20.4,14.6c3.3,2.3,7.2,4.3,9.6,7.4
	c6.4,8.5,5.5,17.8,5.5,32.4c0,7.5,0.1,14.5-2.4,19.4c-6.8,13.1-32,15.1-44.6,5.8c-8.7-6.5-7-23.7-7-38.9c1.8,0,3.5,0,5.3,0
	c-0.1,13.7-1.9,30.4,6,36.2c6.3,4.6,20.3,6.2,28.6,1.9c5.2-2.7,7.4-7.3,8.9-13.9c0-4.5,0-9,0-13.4c0-7,0.9-16.1-1.2-21.4
	c-2.8-6.9-8.2-10.2-13.9-14.2c-6.9-4.8-13.7-10-20.6-14.9c-4.7-3.3-9.3-6-12-11.3c-1.8-3.4-1.7-8.2-1.7-13.4
	c0-8.2-0.8-17.9,1.7-23.8c2.5-5.8,7.7-10,13.9-12c9.6-3.1,23.1-1.1,29.5,3.4C279.6,23.8,278.2,36.2,278.2,52.8z"/>
<path class="st0" d="M297.6,13.2c1.8,0,3.7,0,5.5,0c0,48,0,97.1,0,144.2c-1.8,0-3.7,0-5.5,0C297.6,110.3,297.6,61.2,297.6,13.2z"/>
<path class="st0" d="M67.4,25.7c-2.5-6-8-9.9-14.4-12c-1.7-0.5-6.7-0.5-7.9-1.2c-6.9,0-13.8,0-20.6,0c-2.9,0-7.2-0.6-9.6,0.2
	c0,48,0,96,0,144c1.8,0,3.5,0,5.3,0c0-12.8,0-25.6,0-38.4c4.2,0,8.3,0,12.5,0c9.5,12.8,19,25.6,28.6,38.4c2.2,0,4.5,0,6.7,0
	c0-0.1,0-0.2,0-0.2c-3.2-1.5-6.3-7.4-8.4-10.3c-4.3-5.9-9.2-11.6-13.4-17.5c-2.3-3.2-4.4-7.1-7.2-9.8c0-0.2,0-0.3,0-0.5
	c13.5,0,22.5-2.3,27.6-10.6c2.7-4.3,2.6-10.7,2.6-17.8c0-9.2,0-18.4,0-27.6c0-6.5,0-13,0-19.4C69.1,36.5,69.3,30.2,67.4,25.7z
	 M64.1,46.3c0,12.9-0.2,25.5-0.2,37.7c0,9.2,0.9,17.8-3.1,23.3c-6.5,9-25,7.1-40.6,7c0-32.3,0-64.8,0-97.7c15.5-0.1,33.5-1.9,40.1,7
	C64.2,28.9,64.1,36.8,64.1,46.3z"/>
<path class="st0" d="M136.6,12.5c-18,0-40.7-2.5-48.5,7.9c-7.1,9.4-4.8,27.5-4.8,43.4c-0.1,30.3,0,61.4,0,92.9c1.7,0,3.4,0,5,0
	c0-13,0.3-26.2,0.2-38.9c14.3,0,28.6,0,43,0c0,13,0,25.9,0,38.9c1.7,0,3.4,0,5,0C136.6,107.6,136.5,61.3,136.6,12.5z M131.5,113.8
	c-14.3,0-28.6,0-43,0c0-14.8,0-29.7,0-44.2c-0.1-5.2-0.2-10.4-0.2-15.6c0-2.3-0.2-5.1,0.2-7c-0.1-4-0.2-8-0.2-12
	c1.2-5.6,1.5-8.4,4.3-12.2c6.2-8.2,24.6-6.3,38.9-6.2C131.5,49.8,131.5,81.1,131.5,113.8z"/>
</svg>
